<svg width="26" height="32" viewBox="0 0 26 32" fill="none" xmlns="http://www.w3.org/2000/svg">
<path d="M13.0013 19.1667C16.4941 19.1667 19.3346 16.3262 19.3346 12.8333C19.3346 9.3405 16.4941 6.5 13.0013 6.5C9.50847 6.5 6.66797 9.3405 6.66797 12.8333C6.66797 16.3262 9.50847 19.1667 13.0013 19.1667ZM13.0013 9.66667C14.7477 9.66667 16.168 11.0869 16.168 12.8333C16.168 14.5798 14.7477 16 13.0013 16C11.2549 16 9.83464 14.5798 9.83464 12.8333C9.83464 11.0869 11.2549 9.66667 13.0013 9.66667Z" fill="#2091F9"/>
<path d="M11.7485 31.5382C12.0164 31.7296 12.3375 31.8324 12.6668 31.8324C12.9961 31.8324 13.3172 31.7296 13.5851 31.5382C14.0665 31.1978 25.3794 23.0293 25.3335 12.8327C25.3335 5.8486 19.6509 0.166016 12.6668 0.166016C5.68272 0.166016 0.000139393 5.8486 0.000139393 12.8248C-0.0457773 23.0293 11.2671 31.1978 11.7485 31.5382ZM12.6668 3.33268C17.9061 3.33268 22.1668 7.59343 22.1668 12.8406C22.2001 19.8674 15.2191 26.177 12.6668 28.2464C10.1161 26.1754 3.13356 19.8643 3.16681 12.8327C3.16681 7.59343 7.42756 3.33268 12.6668 3.33268Z" fill="#2091F9"/>
</svg>
