<svg width="34" height="28" viewBox="0 0 34 28" fill="none" xmlns="http://www.w3.org/2000/svg">
<path d="M33.3056 3.69652C32.0808 4.22487 30.7479 4.60511 29.3751 4.75321C30.8004 3.9064 31.8678 2.56859 32.377 0.990768C31.0395 1.78644 29.5742 2.34438 28.0462 2.63984C27.4076 1.9571 26.6352 1.4132 25.7771 1.04203C24.9191 0.670861 23.9938 0.480373 23.059 0.482438C19.2765 0.482438 16.2345 3.54843 16.2345 7.31087C16.2345 7.83921 16.2986 8.36756 16.4026 8.87589C10.739 8.57969 5.68769 5.87394 2.32951 1.73125C1.71762 2.77639 1.39696 3.9664 1.40091 5.17748C1.40091 7.54702 2.60569 9.63638 4.44288 10.8652C3.3602 10.8225 2.30286 10.5249 1.35688 9.99661V10.0807C1.35688 13.3988 3.7024 16.1486 6.82843 16.781C6.24148 16.9335 5.63769 17.0115 5.03126 17.0132C4.58698 17.0132 4.1667 16.9691 3.74243 16.9091C4.60699 19.6149 7.12462 21.5801 10.1226 21.6442C7.77705 23.4814 4.83914 24.5621 1.64907 24.5621C1.0767 24.5621 0.548356 24.5421 0 24.478C3.02596 26.4193 6.61629 27.54 10.4828 27.54C23.0349 27.54 29.9034 17.1412 29.9034 8.11539C29.9034 7.8192 29.9034 7.52301 29.8834 7.22681C31.2122 6.25418 32.377 5.0494 33.3056 3.69652Z" fill="#2091F9"/>
</svg>
