<svg width="31" height="39" viewBox="0 0 31 39" fill="none" xmlns="http://www.w3.org/2000/svg">
<path d="M15.6667 23.0003C19.8948 23.0003 23.3333 19.5618 23.3333 15.3337C23.3333 11.1055 19.8948 7.66699 15.6667 7.66699C11.4385 7.66699 8 11.1055 8 15.3337C8 19.5618 11.4385 23.0003 15.6667 23.0003ZM15.6667 11.5003C17.7808 11.5003 19.5 13.2196 19.5 15.3337C19.5 17.4477 17.7808 19.167 15.6667 19.167C13.5526 19.167 11.8333 17.4477 11.8333 15.3337C11.8333 13.2196 13.5526 11.5003 15.6667 11.5003Z" fill="white"/>
<path d="M14.2218 37.9768C14.5462 38.2085 14.9349 38.333 15.3335 38.333C15.7321 38.333 16.1208 38.2085 16.4452 37.9768C17.0278 37.5647 30.7224 27.6767 30.6668 15.3333C30.6668 6.87892 23.7879 0 15.3335 0C6.87909 0 0.000168739 6.87892 0.000168739 15.3238C-0.0554146 27.6767 13.6392 37.5647 14.2218 37.9768ZM15.3335 3.83333C21.6758 3.83333 26.8335 8.99108 26.8335 15.3429C26.8738 23.8491 18.4232 31.487 15.3335 33.9921C12.2458 31.4851 3.79325 23.8453 3.8335 15.3333C3.8335 8.99108 8.99125 3.83333 15.3335 3.83333Z" fill="white"/>
</svg>
