<svg width="34" height="28" viewBox="0 0 34 28" fill="none" xmlns="http://www.w3.org/2000/svg">
<path d="M33.6845 3.68534C32.4597 4.21368 31.1269 4.59393 29.754 4.74203C31.1793 3.89522 32.2467 2.55741 32.7559 0.979584C31.4184 1.77526 29.9531 2.3332 28.4251 2.62865C27.7865 1.94592 27.0141 1.40202 26.156 1.03085C25.298 0.659676 24.3727 0.469189 23.4379 0.471254C19.6554 0.471254 16.6134 3.53724 16.6134 7.29968C16.6134 7.82803 16.6775 8.35637 16.7815 8.8647C11.1179 8.56851 6.0666 5.86275 2.70842 1.72006C2.09652 2.7652 1.77587 3.95522 1.77981 5.1663C1.77981 7.53584 2.9846 9.62519 4.82179 10.854C3.7391 10.8114 2.68177 10.5138 1.73579 9.98543V10.0695C1.73579 13.3876 4.08131 16.1374 7.20734 16.7698C6.62039 16.9223 6.01659 17.0003 5.41017 17.002C4.96588 17.002 4.54561 16.958 4.12133 16.8979C4.98589 19.6037 7.50353 21.5689 10.5015 21.633C8.15595 23.4702 5.21805 24.5509 2.02798 24.5509C1.4556 24.5509 0.927262 24.5309 0.378906 24.4668C3.40487 26.4081 6.9952 27.5288 10.8617 27.5288C23.4139 27.5288 30.2823 17.1301 30.2823 8.10421C30.2823 7.80801 30.2823 7.51182 30.2623 7.21563C31.5912 6.243 32.7559 5.03822 33.6845 3.68534Z" fill="white"/>
</svg>
