<svg width="193" height="59" viewBox="0 0 193 59" fill="none" xmlns="http://www.w3.org/2000/svg">
<g clip-path="url(#clip0_1445_378)">
<path d="M186.989 35.8387L192.344 39.1081C190.606 41.4525 186.45 45.4749 179.264 45.4749C170.341 45.4749 163.695 39.1512 163.695 31.1067C163.695 22.5463 170.411 16.7388 178.512 16.7388C186.661 16.7388 190.653 22.6751 191.944 25.8799L192.649 27.5148L171.656 35.473C173.253 38.3554 175.742 39.818 179.264 39.818C182.786 39.818 185.228 38.2262 186.989 35.8387ZM170.529 30.6554L184.547 25.3209C183.772 23.5358 181.472 22.267 178.724 22.267C175.225 22.267 170.364 25.1062 170.529 30.6554Z" fill="#FF302F"/>
<path d="M153.574 2.09117H160.337V44.1628H153.574V2.09082V2.09117Z" fill="#20B15A"/>
<path d="M142.913 17.857H149.441V43.4098C149.441 54.0135 142.607 58.3798 134.529 58.3798C126.921 58.3798 122.342 53.691 120.628 49.884L126.616 47.6038C127.696 49.9482 130.302 52.7232 134.529 52.7232C139.719 52.7232 142.913 49.7763 142.913 44.2702V42.2054H142.678C141.128 43.9259 138.169 45.4745 134.412 45.4745C126.569 45.4745 119.383 39.2154 119.383 31.1498C119.383 23.0406 126.569 16.7173 134.412 16.7173C138.146 16.7173 141.128 18.2444 142.678 19.9221H142.913V17.8574V17.857ZM143.382 31.1498C143.382 26.0735 139.695 22.3739 134.999 22.3739C130.255 22.3739 126.263 26.0735 126.263 31.1498C126.263 36.1611 130.255 39.7961 134.999 39.7961C139.696 39.8179 143.382 36.1611 143.382 31.1498H143.382Z" fill="#3686F7"/>
<path d="M82.259 31.0421C82.259 39.3232 75.2145 45.41 66.5729 45.41C57.9316 45.41 50.8867 39.3018 50.8867 31.0421C50.8867 22.7183 57.9316 16.6528 66.5729 16.6528C75.2145 16.6528 82.259 22.7183 82.259 31.0421ZM75.4022 31.0421C75.4022 25.8803 71.3161 22.3309 66.5729 22.3309C61.8297 22.3309 57.7435 25.8803 57.7435 31.0421C57.7435 36.1612 61.8297 39.7534 66.5729 39.7534C71.3164 39.7534 75.4022 36.1612 75.4022 31.0421Z" fill="#FF302F"/>
<path d="M116.517 31.1067C116.517 39.3877 109.472 45.4746 100.831 45.4746C92.189 45.4746 85.1445 39.3874 85.1445 31.1067C85.1445 22.7828 92.189 16.7388 100.831 16.7388C109.472 16.7388 116.517 22.7614 116.517 31.1067ZM109.636 31.1067C109.636 25.9448 105.551 22.3954 100.807 22.3954C96.0637 22.3954 91.9776 25.9448 91.9776 31.1067C91.9776 36.2257 96.0637 39.818 100.807 39.818C105.574 39.818 109.636 36.2043 109.636 31.1067Z" fill="#FFBA40"/>
<path d="M25.1021 39.1727C15.2629 39.1727 7.56097 31.9026 7.56097 22.8902C7.56097 13.8782 15.2629 6.60813 25.1021 6.60813C30.4092 6.60813 34.2836 8.52233 37.1484 10.9745L41.8686 6.65129C37.8767 3.14537 32.5462 0.477783 25.1021 0.477783C11.6234 0.478128 0.28125 10.5446 0.28125 22.8902C0.28125 35.2366 11.6234 45.3027 25.1021 45.3027C32.3818 45.3027 37.8767 43.1088 42.1739 39.0221C46.5884 34.9783 47.9504 29.2999 47.9504 24.6971C47.9504 23.2559 47.7627 21.7719 47.5512 20.675H25.1021V26.6544H41.0936C40.6239 30.3972 39.3325 32.9567 37.4304 34.6986C35.1291 36.8283 31.4896 39.1727 25.1021 39.1727Z" fill="#3686F7"/>
</g>
<defs>
<clipPath id="clip0_1445_378">
<rect width="193" height="58.0061" fill="white" transform="translate(0 0.388672)"/>
</clipPath>
</defs>
</svg>
